<?xml version="1.0" encoding="UTF-8" standalone="no"?>
<svg
   data-name="Layer 1"
   width="904.51179"
   height="587.86116"
   viewBox="0 0 904.51179 587.86116"
   version="1.1"
   id="svg134"
   sodipodi:docname="undraw_thought_process_re_om58.svg"
   inkscape:version="1.2.1 (9c6d41e410, 2022-07-14)"
   xmlns:inkscape="http://www.inkscape.org/namespaces/inkscape"
   xmlns:sodipodi="http://sodipodi.sourceforge.net/DTD/sodipodi-0.dtd"
   xmlns="http://www.w3.org/2000/svg"
   xmlns:svg="http://www.w3.org/2000/svg">
  <defs
     id="defs138" />
  <sodipodi:namedview
     id="namedview136"
     pagecolor="#ffffff"
     bordercolor="#000000"
     borderopacity="0.25"
     inkscape:showpageshadow="2"
     inkscape:pageopacity="0.0"
     inkscape:pagecheckerboard="0"
     inkscape:deskcolor="#d1d1d1"
     showgrid="false"
     inkscape:zoom="0.90509668"
     inkscape:cx="542.48349"
     inkscape:cy="239.75339"
     inkscape:window-width="1920"
     inkscape:window-height="974"
     inkscape:window-x="-11"
     inkscape:window-y="-11"
     inkscape:window-maximized="1"
     inkscape:current-layer="svg134" />
  <g
     inkscape:groupmode="layer"
     id="layer2"
     inkscape:label="Design">
    <path
       d="m 883.03819,359.02749 h -31.80376 a 4.50052,4.50052 0 0 1 -3.53467,-1.70263 4.4081,4.4081 0 0 1 -0.86279,-3.74561 86.5354,86.5354 0 0 0 -0.41992,-40.00439 4.471,4.471 0 0 1 2.42236,-5.13086 c 13.28418,-6.21778 25.48338,-6.05567 36.25688,0.48047 a 4.52651,4.52651 0 0 1 2.143,3.15136 141.55237,141.55237 0 0 1 0.2593,43.08008 4.49087,4.49087 0 0 1 -4.4604,3.87158 z"
       fill="#bdce0c"
       id="path2"
       style="fill:#bc5fd3" />
    <path
       d="m 882.55519,338.19202 h -24.3175 a 2.28111,2.28111 0 0 1 0,-4.56221 h 24.3175 a 2.28111,2.28111 0 0 1 0,4.56221 z"
       fill="#ffffff"
       id="path4" />
    <path
       d="m 882.55519,330.19202 h -24.3175 a 2.28111,2.28111 0 0 1 0,-4.56221 h 24.3175 a 2.28111,2.28111 0 0 1 0,4.56221 z"
       fill="#ffffff"
       id="path6" />
    <circle
       cx="246.14815"
       cy="186.83946"
       r="169"
       fill="#f2f2f2"
       id="circle8"
       style="fill:#fff6d5" />
    <circle
       cx="442.14816"
       cy="318.83945"
       r="32"
       fill="#f2f2f2"
       id="circle10"
       style="fill:#ffff00" />
    <circle
       cx="603.14813"
       cy="409.83945"
       r="13"
       fill="#f2f2f2"
       id="circle12"
       style="fill:#ffff00" />
    <path
       d="m 840.69078,297.24947 -9.315,-90.16375 -2.45863,-37.10843 26.07234,-4.7144 c 0,0 3.9042,25.5103 7.3197,40.48087 3.3706,14.77276 -4.4901,89.52617 -4.6984,91.49765 a 12.68492,12.68492 0 1 1 -16.92001,0.008 z"
       fill="#ffb8b8"
       id="path34" />
    <polygon
       points="714.574,522.932 734.15,522.933 734.148,574.092 720.884,574.092 "
       fill="#ffb6b6"
       id="polygon36" />
    <path
       d="m 737.53033,586.94947 -42.76752,-0.002 v -0.54094 a 16.64719,16.64719 0 0 1 16.64631,-16.646 h 10e-4 l 7.81205,-5.92664 14.57555,5.92754 3.73334,1.5e-4 z"
       fill="#2f2e41"
       id="path38"
       style="fill:#e3e2db" />
    <polygon
       points="831.472,522.932 851.048,522.933 851.045,574.092 837.782,574.092 "
       fill="#ffb6b6"
       id="polygon40" />
    <path
       d="m 854.42799,586.94947 -42.76751,-0.002 v -0.54094 a 16.64719,16.64719 0 0 1 16.64631,-16.646 h 10e-4 l 7.81205,-5.92664 14.57555,5.92754 3.73334,1.5e-4 z"
       fill="#2f2e41"
       id="path42"
       style="fill:#e3e2db" />
    <path
       d="m 830.8721,300.28115 11.15579,105.98071 c 0,0 14.851,106.11694 12.062,120.759 -2.789,14.64206 0.6972,16.7338 0.6972,16.7338 l -25.44811,-1.81236 c 0,0 0.69723,-9.06416 -3.48624,-13.24757 -4.18347,-4.18341 -2.09168,-16.73381 -2.09168,-16.73381 l -49.36548,-172.63424 -29.98137,90.64141 c 0,0 -4.8807,99.70557 -5.57792,101.1 -0.69722,1.39443 -2.789,20.22 -2.789,20.22 h -25.798 c 0,0 3.48619,-11.15584 -1.3945,-14.64208 -4.88069,-3.48624 -9.06416,-0.69722 -4.8807,-6.97242 4.18346,-6.2752 5.57792,-13.94485 4.18347,-17.431 -1.39445,-3.48615 -1.39451,-17.431 -1.39451,-17.431 0,0 2.09174,-188.25519 13.94485,-194.53039 11.85311,-6.2752 110.1642,-5e-5 110.1642,-5e-5 z"
       fill="#2f2e41"
       id="path44"
       style="fill:#e9ddaf;fill-opacity:1" />
    <circle
       cx="778.04041"
       cy="58.258572"
       r="27.4387"
       fill="#ffb8b8"
       id="circle46" />
    <path
       d="m 859.38489,179.64718 -26.98618,9.67809 -8.219,2.9451 -5.999,-76.62693 20.58857,10.91955 a 0.43133,0.43133 0 0 1 0.0906,0.0905 55.71552,55.71552 0 0 1 8.8625,13.14873 c 11.29091,22.9537 11.66251,39.84497 11.66251,39.84497 z"
       fill="#3f3d56"
       id="path48"
       style="fill:#ec9e2a;fill-opacity:1" />
    <path
       d="m 673.48051,290.776 c 0,0 27.42772,-85.21874 27.9073,-86.24066 3.59241,-27.28049 13.92471,-39.31418 15.47362,-38.00777 l 26.66794,9.23874 c 0,0 -7.93233,25.119 -13.303,40.03927 -5.13192,14.25688 -40.278,80.07986 -41.265,81.79912 a 12.68491,12.68491 0 1 1 -15.48083,-6.8287 z"
       fill="#ffb8b8"
       id="path50" />
    <path
       d="m 756.33999,120.57833 c 0,0 -23.08916,-11.31585 -32.04437,10.909 -5.86461,14.98839 -8.64183,21.52622 -12.55758,37.1375 0,0 23.53514,3.531 31.08183,16.83072 z"
       fill="#3f3d56"
       id="path52"
       style="fill:#ec9e2a;fill-opacity:1" />
    <path
       d="m 840.35498,311.83216 c -53.13861,10.97387 -123.55809,-7.89282 -123.55809,-7.89282 l 18.78516,-81.42976 -6.67857,-85.21753 c -0.81558,-10.42111 5.12,-20.18969 14.35392,-23.65126 l 12.75006,-4.77561 10.53881,-15.088 30.10339,0.98771 12.03414,15.84007 9.49679,5.03843 20.58857,10.91955 0.0906,0.0453 v 0.0452 l -6.4611,62.67179 -3.89652,37.78781 c 0,0 11.8347,42.49991 9.40608,48.13646 -2.42851,5.62736 -0.317,2.90881 0.2719,5.91729 0.589,3.0086 2.39234,3.19886 2.66413,9.12533 0.28097,5.91747 -0.48927,21.54005 -0.48927,21.54005 z"
       fill="#3f3d56"
       id="path54"
       style="fill:#ec9e2a;fill-opacity:1" />
    <path
       d="m 807.80594,48.48785 c -2.16834,-2.13913 1.09578,-7.80233 0.4792,-10.78526 -0.70685,-3.42 -4.4755,-3.52009 -5.3745,-6.89472 -0.96724,-3.63026 -4.83511,-5.60656 -8.41162,-6.7571 a 54.391,54.391 0 0 0 -28.34666,-1.29833 108.2013,108.2013 0 0 0 -12.26345,3.77772 c -2.76789,0.9741 -0.0987,-1.67664 -2.86645,-0.70253 a 4.34484,4.34484 0 0 0 -2.59521,1.72188 c -0.49756,0.9408 0.17345,2.44543 1.22034,2.25484 q -5.06841,2.2352 -10.13705,4.47041 2.84267,2.97773 5.68533,5.95567 c -2.694,-0.7668 -5.5663,2.44533 -4.50415,5.03711 a 5.69338,5.69338 0 0 0 4.35648,3.01589 c 3.04365,0.59225 0.73505,3.4889 3.83535,3.43248 3.1003,-0.0564 24.71949,-6.41153 26.22666,-3.70172 1.07322,1.92962 0.95519,4.48556 2.48758,6.07537 1.9606,2.03393 5.3839,1.29013 7.87944,-0.0341 2.49544,-1.32409 5.02627,-3.144 7.83353,-2.82651 2.93072,0.33141 5.14728,5.74727 5.86907,8.60708 0.72189,2.85981 0.26592,5.86885 -0.19347,8.78242 -0.60331,3.82639 -6.64373,7.65267 -7.247,11.47895 6.704,1.854 13.89541,-4.04486 16.54582,-14.30314 -0.26409,-6.4847 4.14083,-12.74819 -0.47924,-17.30643 z"
       fill="#2f2e41"
       id="path56"
       style="fill:#552200" />
    <path
       d="m 381.24728,404.84376 c -80.77392,0.004 -151.05273,-60.252 -161.43506,-142.4375 l 1.98438,-0.251 c 10.2539,81.1709 79.67676,140.6836 159.45215,140.68848 a 161.36039,161.36039 0 0 0 20.27343,-1.2793 C 489.50802,390.44921 552.0466,309.82518 540.93136,221.83935 l 1.98438,-0.251 c 11.25342,89.07959 -52.063,170.70752 -141.14258,181.96045 a 163.74439,163.74439 0 0 1 -20.52588,1.29496 z"
       fill="#3f3d56"
       id="path58"
       style="fill:#008000" />
    <path
       d="m 385.58467,438.29209 h -31.80371 a 4.50049,4.50049 0 0 1 -3.53466,-1.70263 4.40807,4.40807 0 0 1 -0.8628,-3.74561 86.51558,86.51558 0 0 0 -0.52,-40.40088 4.47676,4.47676 0 0 1 1.95117,-4.87353 c 11.00245,-6.81592 22.98291,-6.603 36.62793,0.65185 a 4.55074,4.55074 0 0 1 2.36817,3.27491 141.562,141.562 0 0 1 0.23437,42.92431 4.49087,4.49087 0 0 1 -4.46047,3.87158 z"
       fill="#bdce0c"
       id="path60"
       style="fill:#00ffff" />
    <path
       d="m 240.58467,268.29209 h -31.80371 a 4.50049,4.50049 0 0 1 -3.53466,-1.70263 4.40807,4.40807 0 0 1 -0.8628,-3.74561 86.49,86.49 0 0 0 -0.55517,-40.53613 4.509,4.509 0 0 1 1.74951,-4.73828 c 16.35351,-11.76172 29.23242,-11.42041 38.27929,1.01611 a 4.51917,4.51917 0 0 1 0.79151,1.90967 141.54,141.54 0 0 1 0.39648,43.92529 4.49087,4.49087 0 0 1 -4.46045,3.87158 z"
       fill="#cccccc"
       id="path62" />
    <path
       d="m 370.72471,408.44328 h -10.94052 a 2.28111,2.28111 0 0 1 0,-4.56221 h 10.94052 a 2.281105,2.281105 0 0 1 0,4.56221 z"
       fill="#ffffff"
       id="path64" />
    <path
       d="m 384.10172,417.45658 h -24.31753 a 2.28111,2.28111 0 0 1 0,-4.56221 h 24.31753 a 2.28111,2.28111 0 0 1 0,4.56221 z"
       fill="#ffffff"
       id="path66" />
    <path
       d="m 230.72471,236.44328 h -10.94052 a 2.28111,2.28111 0 0 1 0,-4.56221 h 10.94052 a 2.28111,2.28111 0 0 1 0,4.56221 z"
       fill="#ffffff"
       id="path68" />
    <path
       d="m 230.72471,244.44328 h -10.94052 a 2.28111,2.28111 0 0 1 0,-4.56221 h 10.94052 a 2.28111,2.28111 0 0 1 0,4.56221 z"
       fill="#ffffff"
       id="path70" />
    <path
       d="m 230.72471,252.44328 h -10.94052 a 2.28111,2.28111 0 0 1 0,-4.56221 h 10.94052 a 2.28111,2.28111 0 0 1 0,4.56221 z"
       fill="#ffffff"
       id="path72" />
    <path
       d="M 668.62632,305.86524 H 566.96126 a 10.28839,10.28839 0 0 1 -10.27672,-10.27677 v -62.61613 a 10.2884,10.2884 0 0 1 10.27672,-10.27676 h 101.66506 a 10.28841,10.28841 0 0 1 10.27678,10.27678 v 62.61613 a 10.28841,10.28841 0 0 1 -10.27678,10.27675 z"
       fill="#e6e6e6"
       id="path74"
       style="fill:#00c0c0;fill-opacity:1" />
    <path
       d="m 628.23318,297.79985 h -54.12549 a 9.63563,9.63563 0 0 1 -9.625,-9.62451 v -47.79 a 9.63563,9.63563 0 0 1 9.625,-9.62451 h 87.37256 a 9.63521,9.63521 0 0 1 9.62451,9.62451 v 14.54346 a 42.9198,42.9198 0 0 1 -42.87158,42.87105 z"
       fill="#ffffff"
       id="path76" />
    <path
       d="m 652.76405,256.92958 h -69.94052 a 2.281,2.281 0 1 1 0,-4.562 h 69.94052 a 2.281,2.281 0 1 1 0,4.562 z"
       fill="#bdce0c"
       id="path78" />
    <path
       d="m 593.76405,265.94288 h -10.94052 a 2.28111,2.28111 0 0 1 0,-4.56221 h 10.94052 a 2.28111,2.28111 0 0 1 0,4.56221 z"
       fill="#bdce0c"
       id="path80" />
    <path
       d="m 613.14106,274.95621 h -30.31753 a 2.2811,2.2811 0 0 1 0,-4.5622 h 30.31753 a 2.2811,2.2811 0 1 1 0,4.5622 z"
       fill="#bdce0c"
       id="path82" />
    <circle
       cx="553.13672"
       cy="221.44849"
       r="21.50617"
       fill="#3f3d56"
       id="circle84"
       style="fill:#ffff00" />
    <path
       d="m 309.68663,57.84964 a 56.086027,56.086027 0 1 1 110.05652,21.68253 l -1.96288,-0.38651 A 54.08546,54.08546 0 1 0 311.6495,58.23615 Z"
       fill="#3f3d56"
       id="path86"
       style="fill:#008000" />
    <path
       d="m 330.98437,93.23397 -31.77648,1.31613 a 4.50052,4.50052 0 0 1 -3.6021,-1.55491 4.408,4.408 0 0 1 -1.01706,-3.70669 86.53527,86.53527 0 0 0 -2.075,-39.95275 4.47106,4.47106 0 0 1 2.20795,-5.22671 c 13.0155,-6.76218 25.211,-7.10505 36.24566,-1.02035 a 4.52655,4.52655 0 0 1 2.27165,3.06 141.5524,141.5524 0 0 1 2.04182,43.03244 4.49087,4.49087 0 0 1 -4.29644,4.05284 z"
       fill="#bdce0c"
       id="path88" />
    <path
       d="m 329.6396,72.43633 -24.29671,1.00632 a 2.2811,2.2811 0 1 1 -0.1888,-4.55829 l 24.2967,-1.00633 a 2.2811039,2.2811039 0 0 1 0.18879,4.5583 z"
       fill="#ffffff"
       id="path90" />
    <path
       d="m 329.30854,64.44318 -24.2967,1.00633 a 2.2811039,2.2811039 0 0 1 -0.18879,-4.5583 l 24.2967,-1.00633 a 2.2811039,2.2811039 0 0 1 0.18879,4.5583 z"
       fill="#ffffff"
       id="path92" />
    <path
       d="M 538.94178,91.16968 H 437.27672 A 10.28839,10.28839 0 0 1 427,80.8929 V 18.27678 A 10.28839,10.28839 0 0 1 437.27672,8 h 101.66506 a 10.28841,10.28841 0 0 1 10.27678,10.27678 v 62.61613 a 10.28841,10.28841 0 0 1 -10.27678,10.27677 z"
       fill="#e6e6e6"
       id="path94"
       style="fill:#00c0c0;fill-opacity:1" />
    <path
       d="m 498.54864,83.10429 h -54.12549 a 9.63563,9.63563 0 0 1 -9.625,-9.62451 v -47.79 a 9.63563,9.63563 0 0 1 9.625,-9.62451 h 87.37256 a 9.63521,9.63521 0 0 1 9.62451,9.62451 v 14.54346 a 42.91981,42.91981 0 0 1 -42.87158,42.87105 z"
       fill="#ffffff"
       id="path96" />
    <path
       d="m 523.07951,42.23398 h -69.94052 a 2.281,2.281 0 1 1 0,-4.562 h 69.94052 a 2.281,2.281 0 1 1 0,4.562 z"
       fill="#bdce0c"
       id="path98" />
    <path
       d="m 464.07951,51.24732 h -10.94052 a 2.28111,2.28111 0 0 1 0,-4.56221 h 10.94052 a 2.28111,2.28111 0 0 1 0,4.56221 z"
       fill="#bdce0c"
       id="path100" />
    <path
       d="m 483.45652,60.26065 h -30.31753 a 2.281105,2.281105 0 0 1 0,-4.56221 h 30.31753 a 2.28111,2.28111 0 0 1 0,4.56221 z"
       fill="#bdce0c"
       id="path102" />
    <circle
       cx="151.96442"
       cy="401.03183"
       r="21.506161"
       transform="rotate(-58.13426)"
       fill="#3f3d56"
       id="circle104"
       style="fill:#ffff00" />
    <path
       d="m 134.32834,250.4297 a 94.031125,94.031125 0 0 1 175.89795,-66.53812 l -1.8711,0.708 a 92.030552,92.030552 0 1 0 -172.15576,65.12207 z"
       fill="#3f3d56"
       id="path108"
       style="fill:#008000" />
    <path
       d="m 216.58467,157.29209 h -31.80371 a 4.50049,4.50049 0 0 1 -3.53466,-1.70263 4.40807,4.40807 0 0 1 -0.8628,-3.74561 86.51423,86.51423 0 0 0 -0.49707,-40.30908 4.4618,4.4618 0 0 1 2.05762,-4.9375 c 11.52051,-6.70605 23.82324,-6.50147 36.56543,0.60986 a 4.5125,4.5125 0 0 1 2.293,3.23438 141.56107,141.56107 0 0 1 0.24267,42.979 4.49087,4.49087 0 0 1 -4.46048,3.87158 z"
       fill="#bdce0c"
       id="path110"
       style="fill:#ff7f2a" />
    <path
       d="m 201.72471,126.44328 h -10.94052 a 2.28111,2.28111 0 0 1 0,-4.56221 h 10.94052 a 2.28111,2.28111 0 0 1 0,4.56221 z"
       fill="#ffffff"
       id="path112" />
    <path
       d="m 215.10172,135.45658 h -24.31753 a 2.281105,2.281105 0 0 1 0,-4.56221 h 24.31753 a 2.28111,2.28111 0 0 1 0,4.56221 z"
       fill="#ffffff"
       id="path114" />
    <path
       d="M 111.94178,249.16968 H 10.27672 A 10.28839,10.28839 0 0 1 0,238.8929 V 176.27678 A 10.28839,10.28839 0 0 1 10.27672,166 h 101.66506 a 10.28841,10.28841 0 0 1 10.27678,10.27678 v 62.61613 a 10.28841,10.28841 0 0 1 -10.27678,10.27677 z"
       fill="#e6e6e6"
       id="path116"
       style="fill:#00c0c0;fill-opacity:1" />
    <path
       d="M 71.54864,241.10429 H 17.42315 a 9.63563,9.63563 0 0 1 -9.625,-9.62451 v -47.79 a 9.63563,9.63563 0 0 1 9.625,-9.62451 h 87.37256 a 9.63521,9.63521 0 0 1 9.62451,9.62451 v 14.54346 a 42.91981,42.91981 0 0 1 -42.87158,42.87105 z"
       fill="#ffffff"
       id="path118" />
    <path
       d="M 96.07951,200.23398 H 26.13899 a 2.281,2.281 0 1 1 0,-4.562 h 69.94052 a 2.281,2.281 0 1 1 0,4.562 z"
       fill="#bdce0c"
       id="path120" />
    <path
       d="M 37.07951,209.24732 H 26.13899 a 2.28111,2.28111 0 0 1 0,-4.56221 h 10.94052 a 2.28111,2.28111 0 0 1 0,4.56221 z"
       fill="#bdce0c"
       id="path122" />
    <path
       d="M 56.45652,218.26065 H 26.13899 a 2.28111,2.28111 0 0 1 0,-4.56221 h 30.31753 a 2.281105,2.281105 0 0 1 0,4.56221 z"
       fill="#bdce0c"
       id="path124" />
    <circle
       cx="-138.83485"
       cy="243.86694"
       r="21.506161"
       transform="rotate(-58.13426)"
       fill="#3f3d56"
       id="circle126"
       style="fill:#ffff00" />
    <path
       d="m 325.58467,217.29209 h -31.80371 a 4.50049,4.50049 0 0 1 -3.53466,-1.70263 4.40807,4.40807 0 0 1 -0.8628,-3.74561 86.52041,86.52041 0 0 0 -0.47949,-40.24023 4.4894,4.4894 0 0 1 2.124,-4.978 c 15.44971,-8.84375 27.68311,-8.59961 37.39991,0.74658 a 4.4406,4.4406 0 0 1 1.2788,2.47608 141.55617,141.55617 0 0 1 0.33838,43.57226 4.49087,4.49087 0 0 1 -4.46043,3.87155 z"
       fill="#ff6584"
       id="path128" />
    <path
       d="m 312.72471,187.44328 h -10.94052 a 2.28111,2.28111 0 0 1 0,-4.56221 h 10.94052 a 2.28111,2.28111 0 0 1 0,4.56221 z"
       fill="#ffffff"
       id="path130" />
    <path
       d="m 326.10172,196.45658 h -24.31753 a 2.281105,2.281105 0 0 1 0,-4.56221 h 24.31753 a 2.28111,2.28111 0 0 1 0,4.56221 z"
       fill="#ffffff"
       id="path132" />
  </g>
</svg>
