<svg xmlns="http://www.w3.org/2000/svg" xmlns:xlink="http://www.w3.org/1999/xlink" width="500" zoomAndPan="magnify" viewBox="0 0 375 374.999991" height="500" preserveAspectRatio="xMidYMid meet" version="1.0"><defs><g/><clipPath id="id1"><path d="M 138 148 L 226 148 L 226 210 L 138 210 Z M 138 148 " clip-rule="nonzero"/></clipPath><clipPath id="id2"><path d="M 139.742188 110.308594 L 237.957031 112.96875 L 235.292969 211.183594 L 137.082031 208.519531 Z M 139.742188 110.308594 " clip-rule="nonzero"/></clipPath><clipPath id="id3"><path d="M 139.742188 110.308594 L 237.957031 112.96875 L 235.292969 211.183594 L 137.082031 208.519531 Z M 139.742188 110.308594 " clip-rule="nonzero"/></clipPath><clipPath id="id4"><path d="M 149 111 L 237 111 L 237 174 L 149 174 Z M 149 111 " clip-rule="nonzero"/></clipPath><clipPath id="id5"><path d="M 139.742188 110.308594 L 237.957031 112.96875 L 235.292969 211.183594 L 137.082031 208.519531 Z M 139.742188 110.308594 " clip-rule="nonzero"/></clipPath><clipPath id="id6"><path d="M 139.742188 110.308594 L 237.957031 112.96875 L 235.292969 211.183594 L 137.082031 208.519531 Z M 139.742188 110.308594 " clip-rule="nonzero"/></clipPath></defs><g fill="#022179" fill-opacity="1"><g transform="translate(155.15229, 239.741528)"><g><path d="M 17.1875 -17.25 L 6.09375 -17.25 L 6.09375 -11.75 L 16.03125 -11.75 L 16.03125 -8.6875 L 6.09375 -8.6875 L 6.09375 -3.078125 L 17.53125 -3.078125 L 17.53125 0 L 2.671875 0 L 2.671875 -20.328125 L 17.1875 -20.328125 Z M 17.1875 -17.25 "/></g></g></g><g fill="#022179" fill-opacity="1"><g transform="translate(175.666903, 239.741528)"><g><path d="M 2.671875 -20.328125 L 11 -20.328125 C 14.039062 -20.328125 16.550781 -19.367188 18.53125 -17.453125 C 20.519531 -15.535156 21.515625 -13.101562 21.515625 -10.15625 C 21.515625 -7.21875 20.515625 -4.789062 18.515625 -2.875 C 16.523438 -0.957031 13.992188 0 10.921875 0 L 2.671875 0 Z M 6.09375 -17.25 L 6.09375 -3.078125 L 11.09375 -3.078125 C 13.082031 -3.078125 14.738281 -3.738281 16.0625 -5.0625 C 17.394531 -6.382812 18.0625 -8.070312 18.0625 -10.125 C 18.0625 -12.175781 17.378906 -13.875 16.015625 -15.21875 C 14.648438 -16.570312 12.957031 -17.25 10.9375 -17.25 Z M 6.09375 -17.25 "/></g></g></g><g fill="#022179" fill-opacity="1"><g transform="translate(199.63437, 239.741528)"><g><path d="M 11.671875 -20.40625 C 13.097656 -20.40625 14.492188 -20.128906 15.859375 -19.578125 C 17.222656 -19.023438 18.398438 -18.257812 19.390625 -17.28125 L 17.390625 -14.78125 C 16.648438 -15.570312 15.773438 -16.195312 14.765625 -16.65625 C 13.765625 -17.125 12.753906 -17.359375 11.734375 -17.359375 C 9.703125 -17.359375 7.984375 -16.664062 6.578125 -15.28125 C 5.171875 -13.894531 4.46875 -12.207031 4.46875 -10.21875 C 4.46875 -8.207031 5.171875 -6.507812 6.578125 -5.125 C 7.984375 -3.738281 9.703125 -3.046875 11.734375 -3.046875 C 13.835938 -3.046875 15.722656 -3.847656 17.390625 -5.453125 L 19.421875 -3.1875 C 18.378906 -2.164062 17.160156 -1.351562 15.765625 -0.75 C 14.367188 -0.15625 12.960938 0.140625 11.546875 0.140625 C 8.566406 0.140625 6.0625 -0.847656 4.03125 -2.828125 C 2 -4.816406 0.984375 -7.269531 0.984375 -10.1875 C 0.984375 -13.070312 2.015625 -15.492188 4.078125 -17.453125 C 6.140625 -19.421875 8.671875 -20.40625 11.671875 -20.40625 Z M 11.671875 -20.40625 "/></g></g></g><g fill="#022179" fill-opacity="1"><g transform="translate(107.322897, 202.737938)"><g><path d="M -5.375 -4.359375 L -4.328125 -0.875 L -1.484375 -1.734375 L -2.703125 -5.796875 L -1.828125 -6.0625 L -0.28125 -0.9375 L -8.34375 1.484375 L -9.875 -3.578125 L -9 -3.84375 L -7.796875 0.15625 L -5.203125 -0.625 L -6.25 -4.109375 Z M -5.375 -4.359375 "/></g></g></g><g fill="#022179" fill-opacity="1"><g transform="translate(104.700646, 193.616301)"><g><path d="M -1.265625 -7.34375 L -1.0625 -6.234375 L -6.75 -0.96875 L -0.359375 -2.0625 L -0.171875 -0.96875 L -8.46875 0.453125 L -8.65625 -0.640625 L -2.953125 -5.921875 L -9.375 -4.828125 L -9.5625 -5.921875 Z M -1.265625 -7.34375 "/></g></g></g><g fill="#022179" fill-opacity="1"><g transform="translate(103.018585, 182.547901)"><g><path d="M -7.8125 -6.453125 L -7.6875 -3.75 L -0.1875 -4.09375 L -0.140625 -2.984375 L -7.640625 -2.640625 L -7.515625 0.0625 L -8.421875 0.09375 L -8.71875 -6.421875 Z M -7.8125 -6.453125 "/></g></g></g><g fill="#022179" fill-opacity="1"><g transform="translate(102.730392, 172.711472)"><g><path d="M -3.09375 -4.296875 L -3.234375 -2.34375 L 0.15625 -2.09375 L 0.078125 -0.96875 L -8.328125 -1.578125 L -8.125 -4.359375 C -8.0625 -5.304688 -7.796875 -6.019531 -7.328125 -6.5 C -6.859375 -6.976562 -6.210938 -7.1875 -5.390625 -7.125 C -4.859375 -7.09375 -4.410156 -6.914062 -4.046875 -6.59375 C -3.679688 -6.28125 -3.414062 -5.867188 -3.25 -5.359375 L 0.453125 -7.0625 L 0.515625 -7.0625 L 0.421875 -5.875 Z M -4.140625 -2.40625 L -4.015625 -4.09375 C -3.972656 -4.644531 -4.082031 -5.09375 -4.34375 -5.4375 C -4.613281 -5.78125 -4.988281 -5.96875 -5.46875 -6 C -5.988281 -6.039062 -6.394531 -5.914062 -6.6875 -5.625 C -6.988281 -5.34375 -7.160156 -4.90625 -7.203125 -4.3125 L -7.328125 -2.640625 Z M -4.140625 -2.40625 "/></g></g></g><g fill="#022179" fill-opacity="1"><g transform="translate(103.644162, 162.687772)"><g><path d="M -2.75 -6.359375 L -3.4375 -2.796875 L -0.5 -2.234375 L 0.296875 -6.390625 L 1.1875 -6.21875 L 0.1875 -0.96875 L -8.078125 -2.546875 L -7.09375 -7.734375 L -6.1875 -7.5625 L -6.96875 -3.46875 L -4.328125 -2.96875 L -3.640625 -6.53125 Z M -2.75 -6.359375 "/></g></g></g><g fill="#022179" fill-opacity="1"><g transform="translate(105.566437, 153.375916)"><g><path d="M -2.515625 -3 L 0.625 -2 L 0.296875 -0.9375 L -7.734375 -3.46875 L -6.796875 -6.421875 C -6.523438 -7.304688 -6.082031 -7.925781 -5.46875 -8.28125 C -4.863281 -8.632812 -4.191406 -8.695312 -3.453125 -8.46875 C -2.671875 -8.21875 -2.144531 -7.785156 -1.875 -7.171875 C -1.613281 -6.554688 -1.625 -5.796875 -1.90625 -4.890625 Z M -3.390625 -3.265625 L -2.78125 -5.15625 C -2.601562 -5.71875 -2.597656 -6.191406 -2.765625 -6.578125 C -2.941406 -6.960938 -3.28125 -7.234375 -3.78125 -7.390625 C -4.257812 -7.546875 -4.6875 -7.515625 -5.0625 -7.296875 C -5.445312 -7.085938 -5.726562 -6.726562 -5.90625 -6.21875 L -6.53125 -4.265625 Z M -3.390625 -3.265625 "/></g></g></g><g fill="#022179" fill-opacity="1"><g transform="translate(108.809653, 143.664463)"><g><path d="M -1.4375 -5.109375 L -2.25 -3.3125 L 0.859375 -1.90625 L 0.40625 -0.875 L -7.265625 -4.359375 L -6.109375 -6.90625 C -5.722656 -7.769531 -5.222656 -8.34375 -4.609375 -8.625 C -4.003906 -8.914062 -3.328125 -8.894531 -2.578125 -8.5625 C -2.097656 -8.34375 -1.738281 -8.019531 -1.5 -7.59375 C -1.269531 -7.164062 -1.171875 -6.6875 -1.203125 -6.15625 L 2.859375 -6.46875 L 2.921875 -6.4375 L 2.4375 -5.359375 Z M -3.0625 -3.6875 L -2.359375 -5.234375 C -2.128906 -5.742188 -2.078125 -6.203125 -2.203125 -6.609375 C -2.328125 -7.023438 -2.609375 -7.332031 -3.046875 -7.53125 C -3.523438 -7.75 -3.953125 -7.769531 -4.328125 -7.59375 C -4.703125 -7.425781 -5.015625 -7.070312 -5.265625 -6.53125 L -5.96875 -5 Z M -3.0625 -3.6875 "/></g></g></g><g fill="#022179" fill-opacity="1"><g transform="translate(113.135867, 134.574525)"><g><path d="M -0.375 -6.90625 L -2.25 -3.796875 L 0.296875 -2.265625 L 2.484375 -5.890625 L 3.265625 -5.421875 L 0.515625 -0.84375 L -6.703125 -5.1875 L -3.984375 -9.703125 L -3.1875 -9.234375 L -5.34375 -5.671875 L -3.03125 -4.265625 L -1.15625 -7.375 Z M -0.375 -6.90625 "/></g></g></g><g fill="#022179" fill-opacity="1"><g transform="translate(118.132944, 126.505348)"><g><path d="M 4.59375 -5.859375 L 3.90625 -4.984375 L -3.8125 -5.640625 L 1.296875 -1.640625 L 0.609375 -0.78125 L -6.015625 -5.96875 L -5.328125 -6.828125 L 2.40625 -6.171875 L -2.71875 -10.1875 L -2.03125 -11.046875 Z M 4.59375 -5.859375 "/></g></g></g><g fill="#022179" fill-opacity="1"><g transform="translate(125.212805, 117.830738)"><g><path d="M 1.3125 -6.796875 L -1.265625 -4.234375 L 0.84375 -2.125 L 3.84375 -5.109375 L 4.484375 -4.46875 L 0.703125 -0.6875 L -5.234375 -6.65625 L -1.5 -10.390625 L -0.859375 -9.734375 L -3.8125 -6.796875 L -1.90625 -4.890625 L 0.671875 -7.453125 Z M 1.3125 -6.796875 "/></g></g></g><g fill="#022179" fill-opacity="1"><g transform="translate(132.040374, 111.217102)"><g><path d="M 0.234375 -10.890625 L 3.78125 -6.375 C 4.269531 -5.757812 4.472656 -5.097656 4.390625 -4.390625 C 4.304688 -3.679688 3.953125 -3.039062 3.328125 -2.46875 L 3.09375 -2.28125 C 2.363281 -1.71875 1.632812 -1.460938 0.90625 -1.515625 C 0.175781 -1.566406 -0.460938 -1.929688 -1.015625 -2.609375 L -4.5625 -7.125 L -3.703125 -7.796875 L -0.171875 -3.3125 C 0.203125 -2.820312 0.625 -2.550781 1.09375 -2.5 C 1.570312 -2.445312 2.054688 -2.613281 2.546875 -3 C 3.035156 -3.382812 3.304688 -3.804688 3.359375 -4.265625 C 3.410156 -4.734375 3.25 -5.210938 2.875 -5.703125 L -0.65625 -10.1875 Z M 0.234375 -10.890625 "/></g></g></g><g fill="#022179" fill-opacity="1"><g transform="translate(140.36408, 104.916223)"><g><path d="M 1.71875 -5.03125 L 0.03125 -4 L 1.796875 -1.078125 L 0.828125 -0.5 L -3.53125 -7.703125 L -1.140625 -9.15625 C -0.328125 -9.644531 0.40625 -9.832031 1.0625 -9.71875 C 1.726562 -9.613281 2.273438 -9.210938 2.703125 -8.515625 C 2.972656 -8.054688 3.085938 -7.585938 3.046875 -7.109375 C 3.003906 -6.640625 2.816406 -6.1875 2.484375 -5.75 L 6.03125 -3.703125 L 6.0625 -3.65625 L 5.046875 -3.046875 Z M -0.4375 -4.765625 L 1.015625 -5.65625 C 1.484375 -5.9375 1.78125 -6.28125 1.90625 -6.6875 C 2.039062 -7.101562 1.984375 -7.519531 1.734375 -7.9375 C 1.460938 -8.375 1.125 -8.632812 0.71875 -8.71875 C 0.320312 -8.800781 -0.128906 -8.6875 -0.640625 -8.375 L -2.078125 -7.5 Z M -0.4375 -4.765625 "/></g></g></g><g fill="#022179" fill-opacity="1"><g transform="translate(149.06496, 99.85841)"><g><path d="M 1.59375 -4.84375 C 0.613281 -4.695312 -0.148438 -4.710938 -0.703125 -4.890625 C -1.265625 -5.078125 -1.664062 -5.4375 -1.90625 -5.96875 C -2.175781 -6.582031 -2.160156 -7.191406 -1.859375 -7.796875 C -1.566406 -8.410156 -1.035156 -8.894531 -0.265625 -9.25 C 0.265625 -9.488281 0.78125 -9.597656 1.28125 -9.578125 C 1.789062 -9.566406 2.238281 -9.4375 2.625 -9.1875 C 3.007812 -8.9375 3.300781 -8.597656 3.5 -8.171875 L 2.5 -7.703125 C 2.28125 -8.160156 1.957031 -8.453125 1.53125 -8.578125 C 1.113281 -8.710938 0.640625 -8.660156 0.109375 -8.421875 C -0.390625 -8.191406 -0.726562 -7.90625 -0.90625 -7.5625 C -1.09375 -7.21875 -1.09375 -6.847656 -0.90625 -6.453125 C -0.769531 -6.148438 -0.519531 -5.945312 -0.15625 -5.84375 C 0.207031 -5.75 0.75 -5.757812 1.46875 -5.875 C 2.195312 -5.988281 2.789062 -6.019531 3.25 -5.96875 C 3.707031 -5.914062 4.082031 -5.78125 4.375 -5.5625 C 4.675781 -5.351562 4.914062 -5.054688 5.09375 -4.671875 C 5.382812 -4.046875 5.367188 -3.4375 5.046875 -2.84375 C 4.734375 -2.257812 4.175781 -1.785156 3.375 -1.421875 C 2.84375 -1.179688 2.304688 -1.054688 1.765625 -1.046875 C 1.222656 -1.035156 0.742188 -1.144531 0.328125 -1.375 C -0.078125 -1.613281 -0.378906 -1.957031 -0.578125 -2.40625 L 0.4375 -2.875 C 0.644531 -2.40625 0.976562 -2.113281 1.4375 -2 C 1.90625 -1.882812 2.425781 -1.960938 3 -2.234375 C 3.53125 -2.472656 3.890625 -2.765625 4.078125 -3.109375 C 4.265625 -3.460938 4.269531 -3.828125 4.09375 -4.203125 C 3.925781 -4.578125 3.660156 -4.800781 3.296875 -4.875 C 2.941406 -4.957031 2.375 -4.945312 1.59375 -4.84375 Z M 1.59375 -4.84375 "/></g></g></g><g fill="#022179" fill-opacity="1"><g transform="translate(158.022674, 95.932915)"><g><path d="M 7.109375 -2.21875 L 6.046875 -1.875 L 4.890625 -5.59375 L 0.84375 -4.34375 L 2 -0.625 L 0.9375 -0.296875 L -1.5625 -8.34375 L -0.5 -8.671875 L 0.578125 -5.203125 L 4.625 -6.453125 L 3.546875 -9.921875 L 4.609375 -10.265625 Z M 7.109375 -2.21875 "/></g></g></g><g fill="#022179" fill-opacity="1"><g transform="translate(168.853248, 92.852073)"><g><path d="M 2.125 -0.4375 L 1.046875 -0.203125 L -0.625 -8.453125 L 0.453125 -8.6875 Z M 2.125 -0.4375 "/></g></g></g><g fill="#022179" fill-opacity="1"><g transform="translate(174.808393, 91.68624)"><g><path d="M 1.734375 -3.5 L 2.078125 -0.21875 L 0.984375 -0.09375 L 0.125 -8.46875 L 3.203125 -8.796875 C 4.117188 -8.890625 4.859375 -8.726562 5.421875 -8.3125 C 5.992188 -7.90625 6.320312 -7.3125 6.40625 -6.53125 C 6.488281 -5.71875 6.296875 -5.066406 5.828125 -4.578125 C 5.359375 -4.085938 4.65625 -3.796875 3.71875 -3.703125 Z M 1.65625 -4.40625 L 3.640625 -4.609375 C 4.222656 -4.660156 4.65625 -4.84375 4.9375 -5.15625 C 5.226562 -5.46875 5.347656 -5.882812 5.296875 -6.40625 C 5.242188 -6.914062 5.039062 -7.300781 4.6875 -7.5625 C 4.34375 -7.820312 3.898438 -7.925781 3.359375 -7.875 L 1.3125 -7.671875 Z M 1.65625 -4.40625 "/></g></g></g><g fill="#022179" fill-opacity="1"><g transform="translate(185.090795, 90.877714)"><g/></g></g><g fill="#022179" fill-opacity="1"><g transform="translate(190.870597, 90.859752)"><g><path d="M 0.984375 0.09375 L 1.75 -8.296875 L 4.109375 -8.09375 C 4.835938 -8.019531 5.460938 -7.796875 5.984375 -7.421875 C 6.515625 -7.054688 6.90625 -6.5625 7.15625 -5.9375 C 7.414062 -5.3125 7.507812 -4.613281 7.4375 -3.84375 L 7.390625 -3.296875 C 7.316406 -2.503906 7.097656 -1.828125 6.734375 -1.265625 C 6.378906 -0.703125 5.90625 -0.285156 5.3125 -0.015625 C 4.71875 0.253906 4.046875 0.359375 3.296875 0.296875 Z M 2.75 -7.28125 L 2.15625 -0.71875 L 3.3125 -0.609375 C 4.175781 -0.535156 4.863281 -0.738281 5.375 -1.21875 C 5.894531 -1.707031 6.203125 -2.445312 6.296875 -3.4375 L 6.34375 -3.921875 C 6.425781 -4.867188 6.269531 -5.625 5.875 -6.1875 C 5.476562 -6.757812 4.867188 -7.082031 4.046875 -7.15625 Z M 2.75 -7.28125 "/></g></g></g><g fill="#022179" fill-opacity="1"><g transform="translate(201.342474, 92.004685)"><g><path d="M 6.421875 -2.625 L 2.859375 -3.375 L 2.234375 -0.453125 L 6.375 0.421875 L 6.1875 1.3125 L 0.96875 0.203125 L 2.71875 -8.03125 L 7.875 -6.9375 L 7.6875 -6.046875 L 3.609375 -6.90625 L 3.046875 -4.25 L 6.609375 -3.5 Z M 6.421875 -2.625 "/></g></g></g><g fill="#022179" fill-opacity="1"><g transform="translate(210.611813, 94.115313)"><g><path d="M 4.03125 -0.1875 L 8.546875 -6 L 9.703125 -5.609375 L 4.046875 1.375 L 3.109375 1.046875 L 2.84375 -7.9375 L 4 -7.546875 Z M 4.03125 -0.1875 "/></g></g></g><g fill="#022179" fill-opacity="1"><g transform="translate(220.313627, 97.596787)"><g><path d="M 6.84375 -1.046875 L 3.5625 -2.609375 L 2.28125 0.09375 L 6.109375 1.90625 L 5.71875 2.71875 L 0.890625 0.421875 L 4.515625 -7.1875 L 9.28125 -4.921875 L 8.875 -4.078125 L 5.109375 -5.859375 L 3.953125 -3.421875 L 7.234375 -1.859375 Z M 6.84375 -1.046875 "/></g></g></g><g fill="#022179" fill-opacity="1"><g transform="translate(228.844298, 101.838107)"><g><path d="M 2.265625 0.34375 L 5.65625 2.4375 L 5.171875 3.203125 L 0.84375 0.515625 L 5.28125 -6.640625 L 6.21875 -6.046875 Z M 2.265625 0.34375 "/></g></g></g><g fill="#022179" fill-opacity="1"><g transform="translate(236.558094, 106.749994)"><g><path d="M 8.28125 1.578125 C 7.769531 2.222656 7.210938 2.695312 6.609375 3 C 6.003906 3.300781 5.40625 3.414062 4.8125 3.34375 C 4.21875 3.28125 3.65625 3.039062 3.125 2.625 C 2.601562 2.207031 2.238281 1.710938 2.03125 1.140625 C 1.832031 0.578125 1.8125 -0.03125 1.96875 -0.6875 C 2.125 -1.34375 2.445312 -1.976562 2.9375 -2.59375 L 3.3125 -3.078125 C 3.820312 -3.703125 4.378906 -4.164062 4.984375 -4.46875 C 5.597656 -4.78125 6.207031 -4.90625 6.8125 -4.84375 C 7.425781 -4.78125 7.988281 -4.546875 8.5 -4.140625 C 9.03125 -3.710938 9.394531 -3.210938 9.59375 -2.640625 C 9.789062 -2.066406 9.804688 -1.445312 9.640625 -0.78125 C 9.472656 -0.125 9.128906 0.519531 8.609375 1.15625 Z M 7.75 0.453125 C 8.375 -0.328125 8.695312 -1.050781 8.71875 -1.71875 C 8.738281 -2.382812 8.46875 -2.941406 7.90625 -3.390625 C 7.363281 -3.828125 6.765625 -3.960938 6.109375 -3.796875 C 5.460938 -3.628906 4.835938 -3.179688 4.234375 -2.453125 L 3.84375 -1.96875 C 3.238281 -1.207031 2.921875 -0.484375 2.890625 0.203125 C 2.867188 0.890625 3.140625 1.457031 3.703125 1.90625 C 4.265625 2.351562 4.859375 2.492188 5.484375 2.328125 C 6.117188 2.160156 6.742188 1.695312 7.359375 0.9375 Z M 7.75 0.453125 "/></g></g></g><g fill="#022179" fill-opacity="1"><g transform="translate(244.947932, 113.692053)"><g><path d="M 3.8125 -0.796875 L 1.453125 1.5 L 0.6875 0.703125 L 6.71875 -5.171875 L 8.875 -2.953125 C 9.519531 -2.285156 9.859375 -1.601562 9.890625 -0.90625 C 9.921875 -0.207031 9.65625 0.410156 9.09375 0.953125 C 8.507812 1.523438 7.878906 1.78125 7.203125 1.71875 C 6.535156 1.664062 5.867188 1.300781 5.203125 0.625 Z M 4.46875 -1.4375 L 5.859375 -0.015625 C 6.273438 0.410156 6.691406 0.640625 7.109375 0.671875 C 7.523438 0.710938 7.921875 0.550781 8.296875 0.1875 C 8.660156 -0.164062 8.835938 -0.5625 8.828125 -1 C 8.828125 -1.4375 8.640625 -1.859375 8.265625 -2.265625 L 6.828125 -3.734375 Z M 4.46875 -1.4375 "/></g></g></g><g fill="#022179" fill-opacity="1"><g transform="translate(251.989299, 121.053835)"><g><path d="M 8.203125 -3.046875 L 4.3125 3.25 L 11.484375 1.390625 L 12.328125 2.546875 L 5.546875 7.53125 L 4.890625 6.640625 L 7.53125 4.703125 L 10.4375 2.6875 L 3.3125 4.5 L 2.8125 3.8125 L 6.640625 -2.4375 L 3.875 -0.25 L 1.234375 1.6875 L 0.578125 0.796875 L 7.359375 -4.1875 Z M 8.203125 -3.046875 "/></g></g></g><g fill="#022179" fill-opacity="1"><g transform="translate(259.484472, 131.739937)"><g><path d="M 6.15625 3.15625 L 4.40625 -0.03125 L 1.796875 1.40625 L 3.84375 5.109375 L 3.046875 5.546875 L 0.46875 0.859375 L 7.859375 -3.1875 L 10.40625 1.453125 L 9.59375 1.890625 L 7.578125 -1.765625 L 5.203125 -0.453125 L 6.953125 2.734375 Z M 6.15625 3.15625 "/></g></g></g><g fill="#022179" fill-opacity="1"><g transform="translate(263.941495, 140.119508)"><g><path d="M 2.75 6.921875 L 2.34375 5.875 L 6.8125 -0.4375 L 0.78125 1.953125 L 0.359375 0.921875 L 8.1875 -2.1875 L 8.609375 -1.15625 L 4.109375 5.1875 L 10.171875 2.78125 L 10.578125 3.8125 Z M 2.75 6.921875 "/></g></g></g><g fill="#022179" fill-opacity="1"><g transform="translate(267.874918, 150.599119)"><g><path d="M 8.96875 4.6875 L 8.296875 2.078125 L 1.03125 3.96875 L 0.75 2.890625 L 8.015625 1 L 7.34375 -1.625 L 8.234375 -1.84375 L 9.859375 4.46875 Z M 8.96875 4.6875 "/></g></g></g><g fill="#022179" fill-opacity="1"><g transform="translate(270.147746, 160.250157)"><g/></g></g><g fill="#022179" fill-opacity="1"><g transform="translate(271.050205, 165.961816)"><g><path d="M 3.125 6.984375 C 2.226562 6.941406 1.519531 6.65625 1 6.125 C 0.488281 5.601562 0.203125 4.882812 0.140625 3.96875 C 0.078125 2.976562 0.382812 2.160156 1.0625 1.515625 C 1.738281 0.878906 2.664062 0.519531 3.84375 0.4375 L 4.65625 0.390625 C 5.4375 0.335938 6.128906 0.429688 6.734375 0.671875 C 7.347656 0.921875 7.832031 1.289062 8.1875 1.78125 C 8.539062 2.269531 8.738281 2.847656 8.78125 3.515625 C 8.832031 4.410156 8.625 5.140625 8.15625 5.703125 C 7.695312 6.273438 7.03125 6.640625 6.15625 6.796875 L 6.09375 5.6875 C 6.75 5.53125 7.21875 5.28125 7.5 4.9375 C 7.78125 4.601562 7.90625 4.148438 7.875 3.578125 C 7.820312 2.878906 7.519531 2.34375 6.96875 1.96875 C 6.414062 1.59375 5.65625 1.4375 4.6875 1.5 L 3.890625 1.546875 C 2.972656 1.609375 2.257812 1.847656 1.75 2.265625 C 1.238281 2.691406 1.003906 3.242188 1.046875 3.921875 C 1.085938 4.535156 1.253906 4.992188 1.546875 5.296875 C 1.847656 5.609375 2.351562 5.800781 3.0625 5.875 Z M 3.125 6.984375 "/></g></g></g><g fill="#022179" fill-opacity="1"><g transform="translate(271.53113, 176.426546)"><g><path d="M 3.578125 5.9375 L 3.78125 2.3125 L 0.796875 2.140625 L 0.5625 6.359375 L -0.34375 6.3125 L -0.046875 0.984375 L 8.359375 1.4375 L 8.0625 6.703125 L 7.140625 6.65625 L 7.375 2.5 L 4.6875 2.359375 L 4.484375 5.984375 Z M 3.578125 5.9375 "/></g></g></g><g fill="#022179" fill-opacity="1"><g transform="translate(270.84713, 185.931203)"><g><path d="M 0.546875 2.21875 L -0.109375 6.15625 L -1 6 L -0.15625 0.96875 L 8.15625 2.359375 L 7.96875 3.453125 Z M 0.546875 2.21875 "/></g></g></g><g fill="#022179" fill-opacity="1"><g transform="translate(269.189184, 194.9556)"><g><path d="M 0.3125 2.265625 L -0.765625 6.109375 L -1.640625 5.859375 L -0.265625 0.953125 L 7.84375 3.234375 L 7.546875 4.296875 Z M 0.3125 2.265625 "/></g></g></g><g fill="#022179" fill-opacity="1"><g transform="translate(266.49821, 203.78974)"><g/></g></g><g clip-path="url(#id1)"><g clip-path="url(#id2)"><g clip-path="url(#id3)"><path fill="#78ceff" d="M 187.3125 176.089844 C 188.855469 176.132812 190.070312 177.417969 190.03125 178.960938 C 189.988281 180.503906 188.703125 181.71875 187.160156 181.679688 C 185.617188 181.636719 184.398438 180.351562 184.441406 178.808594 C 184.484375 177.265625 185.769531 176.046875 187.3125 176.089844 Z M 178.757812 155.917969 C 177.214844 155.875 175.996094 154.589844 176.039062 153.046875 C 176.082031 151.503906 177.367188 150.289062 178.910156 150.328125 C 180.453125 150.371094 181.667969 151.65625 181.625 153.199219 C 181.585938 154.742188 180.300781 155.960938 178.757812 155.917969 Z M 220.460938 180.164062 C 220.472656 180.148438 220.480469 180.128906 220.492188 180.113281 C 220.613281 179.902344 220.734375 179.691406 220.855469 179.480469 C 220.886719 179.421875 220.921875 179.359375 220.957031 179.300781 C 221.0625 179.109375 221.164062 178.921875 221.265625 178.730469 L 221.265625 178.726562 C 221.585938 178.132812 221.890625 177.523438 222.179688 176.90625 L 198.449219 151.992188 L 183.460938 151.585938 C 182.832031 149.695312 181.074219 148.308594 178.964844 148.25 C 176.273438 148.175781 174.03125 150.300781 173.957031 152.992188 C 173.886719 155.683594 176.007812 157.925781 178.699219 157.996094 C 180.746094 158.054688 182.53125 156.839844 183.304688 155.070312 L 196.910156 155.441406 L 213.496094 172.851562 C 208.816406 182.882812 198.511719 189.707031 186.742188 189.386719 C 173.140625 189.019531 162.011719 179.226562 159.429688 166.433594 L 172.496094 180.148438 L 182.605469 180.421875 C 183.234375 182.3125 184.996094 183.699219 187.101562 183.757812 C 189.796875 183.832031 192.039062 181.707031 192.109375 179.015625 C 192.183594 176.324219 190.058594 174.082031 187.367188 174.011719 C 185.320312 173.953125 183.535156 175.167969 182.765625 176.9375 L 174.03125 176.699219 L 148.875 150.289062 L 144.914062 151.191406 L 139.085938 152.515625 C 138.707031 154.765625 138.476562 157.066406 138.410156 159.414062 C 138.347656 161.761719 138.453125 164.074219 138.710938 166.339844 L 150.324219 169.648438 C 151.105469 172.933594 152.316406 176.050781 153.890625 178.949219 L 147.453125 189.171875 C 150.132812 192.949219 153.339844 196.328125 156.960938 199.210938 L 167.519531 193.339844 C 170.328125 195.066406 173.378906 196.445312 176.613281 197.40625 L 179.289062 209.179688 C 181.539062 209.558594 183.839844 209.789062 186.1875 209.851562 C 188.535156 209.917969 190.84375 209.808594 193.113281 209.554688 L 196.421875 197.941406 C 199.703125 197.15625 202.824219 195.949219 205.722656 194.375 L 215.945312 200.8125 C 219.71875 198.128906 223.101562 194.925781 225.984375 191.300781 L 220.113281 180.746094 C 220.230469 180.550781 220.347656 180.359375 220.460938 180.164062 " fill-opacity="1" fill-rule="nonzero"/></g></g></g><g clip-path="url(#id4)"><g clip-path="url(#id5)"><g clip-path="url(#id6)"><path fill="#022179" d="M 187.726562 145.402344 C 186.183594 145.359375 184.964844 144.074219 185.007812 142.53125 C 185.050781 140.988281 186.335938 139.769531 187.878906 139.8125 C 189.421875 139.855469 190.636719 141.140625 190.59375 142.683594 C 190.554688 144.226562 189.269531 145.441406 187.726562 145.402344 Z M 196.28125 165.574219 C 197.824219 165.613281 199.039062 166.902344 199 168.445312 C 198.957031 169.988281 197.671875 171.203125 196.128906 171.160156 C 194.585938 171.121094 193.367188 169.835938 193.410156 168.292969 C 193.453125 166.75 194.738281 165.53125 196.28125 165.574219 Z M 236.328125 155.152344 L 224.714844 151.84375 C 223.929688 148.558594 222.722656 145.441406 221.148438 142.542969 L 227.585938 132.320312 C 224.902344 128.542969 221.699219 125.160156 218.074219 122.277344 L 207.519531 128.152344 C 204.707031 126.425781 201.660156 125.046875 198.421875 124.085938 L 195.75 112.3125 C 193.5 111.933594 191.195312 111.703125 188.847656 111.636719 C 186.503906 111.574219 184.191406 111.679688 181.925781 111.9375 L 178.617188 123.550781 C 175.332031 124.332031 172.214844 125.542969 169.3125 127.117188 L 159.089844 120.679688 C 155.316406 123.363281 151.933594 126.566406 149.050781 130.191406 L 154.925781 140.746094 C 154.808594 140.9375 154.691406 141.132812 154.574219 141.328125 C 154.566406 141.34375 154.558594 141.359375 154.546875 141.375 C 154.421875 141.585938 154.300781 141.800781 154.179688 142.011719 C 154.148438 142.070312 154.113281 142.128906 154.082031 142.191406 C 153.976562 142.382812 153.871094 142.574219 153.765625 142.765625 L 153.769531 142.765625 C 153.449219 143.363281 153.144531 143.96875 152.855469 144.582031 L 176.589844 169.496094 L 191.574219 169.902344 C 192.203125 171.796875 193.964844 173.183594 196.074219 173.242188 C 198.765625 173.3125 201.003906 171.191406 201.078125 168.5 C 201.152344 165.808594 199.027344 163.566406 196.335938 163.492188 C 194.289062 163.4375 192.503906 164.652344 191.734375 166.417969 L 178.128906 166.050781 L 161.542969 148.640625 C 166.222656 138.609375 176.523438 131.785156 188.292969 132.101562 C 201.898438 132.472656 213.027344 142.261719 215.605469 155.058594 L 202.542969 141.34375 L 192.429688 141.070312 C 191.800781 139.175781 190.042969 137.789062 187.933594 137.734375 C 185.242188 137.660156 183 139.78125 182.925781 142.476562 C 182.855469 145.167969 184.976562 147.40625 187.667969 147.480469 C 189.714844 147.535156 191.5 146.320312 192.273438 144.554688 L 201.003906 144.789062 L 226.160156 171.199219 L 228.257812 170.726562 L 235.953125 168.976562 C 236.332031 166.726562 236.5625 164.421875 236.625 162.078125 C 236.6875 159.730469 236.582031 157.417969 236.328125 155.152344 " fill-opacity="1" fill-rule="nonzero"/></g></g></g><g fill="#022179" fill-opacity="1"><g transform="translate(165.1964, 255.338815)"><g><path d="M 8.3125 0 L 7.234375 0 L 7.21875 -5.234375 L 5.015625 -0.734375 L 4.234375 -0.734375 L 2.03125 -5.234375 L 2.03125 0 L 0.921875 0 L 0.921875 -7 L 2.3125 -7 L 4.625 -2.34375 L 6.9375 -7 L 8.3125 -7 Z M 8.3125 0 "/></g></g></g><g fill="#022179" fill-opacity="1"><g transform="translate(174.952755, 255.338815)"><g><path d="M 6.984375 0 L 5.8125 0 L 5.8125 -2.90625 L 2.09375 -2.90625 L 2.09375 0 L 0.921875 0 L 0.921875 -7 L 2.09375 -7 L 2.09375 -3.953125 L 5.8125 -3.953125 L 5.8125 -7 L 6.984375 -7 Z M 6.984375 0 "/></g></g></g><g fill="#022179" fill-opacity="1"><g transform="translate(183.369637, 255.338815)"><g><path d="M 3.21875 -7.046875 C 4.125 -7.046875 4.941406 -6.804688 5.671875 -6.328125 L 5.1875 -5.296875 C 4.46875 -5.722656 3.78125 -5.9375 3.125 -5.9375 C 2.769531 -5.9375 2.488281 -5.875 2.28125 -5.75 C 2.082031 -5.625 1.984375 -5.441406 1.984375 -5.203125 C 1.984375 -4.972656 2.078125 -4.773438 2.265625 -4.609375 C 2.453125 -4.453125 2.6875 -4.332031 2.96875 -4.25 C 3.25 -4.175781 3.550781 -4.082031 3.875 -3.96875 C 4.207031 -3.851562 4.507812 -3.726562 4.78125 -3.59375 C 5.0625 -3.46875 5.296875 -3.265625 5.484375 -2.984375 C 5.671875 -2.703125 5.765625 -2.367188 5.765625 -1.984375 C 5.765625 -1.367188 5.519531 -0.875 5.03125 -0.5 C 4.539062 -0.132812 3.90625 0.046875 3.125 0.046875 C 2.582031 0.046875 2.0625 -0.0507812 1.5625 -0.25 C 1.0625 -0.457031 0.628906 -0.726562 0.265625 -1.0625 L 0.765625 -2.09375 C 1.117188 -1.757812 1.503906 -1.503906 1.921875 -1.328125 C 2.347656 -1.148438 2.753906 -1.0625 3.140625 -1.0625 C 3.554688 -1.0625 3.878906 -1.132812 4.109375 -1.28125 C 4.335938 -1.4375 4.453125 -1.648438 4.453125 -1.921875 C 4.453125 -2.160156 4.359375 -2.359375 4.171875 -2.515625 C 3.984375 -2.679688 3.75 -2.800781 3.46875 -2.875 C 3.1875 -2.957031 2.878906 -3.050781 2.546875 -3.15625 C 2.222656 -3.269531 1.921875 -3.390625 1.640625 -3.515625 C 1.367188 -3.640625 1.140625 -3.835938 0.953125 -4.109375 C 0.765625 -4.378906 0.671875 -4.707031 0.671875 -5.09375 C 0.671875 -5.6875 0.898438 -6.160156 1.359375 -6.515625 C 1.828125 -6.867188 2.445312 -7.046875 3.21875 -7.046875 Z M 3.21875 -7.046875 "/></g></g></g><g fill="#022179" fill-opacity="1"><g transform="translate(190.097186, 255.338815)"><g><path d="M 3.21875 -7.046875 C 4.125 -7.046875 4.941406 -6.804688 5.671875 -6.328125 L 5.1875 -5.296875 C 4.46875 -5.722656 3.78125 -5.9375 3.125 -5.9375 C 2.769531 -5.9375 2.488281 -5.875 2.28125 -5.75 C 2.082031 -5.625 1.984375 -5.441406 1.984375 -5.203125 C 1.984375 -4.972656 2.078125 -4.773438 2.265625 -4.609375 C 2.453125 -4.453125 2.6875 -4.332031 2.96875 -4.25 C 3.25 -4.175781 3.550781 -4.082031 3.875 -3.96875 C 4.207031 -3.851562 4.507812 -3.726562 4.78125 -3.59375 C 5.0625 -3.46875 5.296875 -3.265625 5.484375 -2.984375 C 5.671875 -2.703125 5.765625 -2.367188 5.765625 -1.984375 C 5.765625 -1.367188 5.519531 -0.875 5.03125 -0.5 C 4.539062 -0.132812 3.90625 0.046875 3.125 0.046875 C 2.582031 0.046875 2.0625 -0.0507812 1.5625 -0.25 C 1.0625 -0.457031 0.628906 -0.726562 0.265625 -1.0625 L 0.765625 -2.09375 C 1.117188 -1.757812 1.503906 -1.503906 1.921875 -1.328125 C 2.347656 -1.148438 2.753906 -1.0625 3.140625 -1.0625 C 3.554688 -1.0625 3.878906 -1.132812 4.109375 -1.28125 C 4.335938 -1.4375 4.453125 -1.648438 4.453125 -1.921875 C 4.453125 -2.160156 4.359375 -2.359375 4.171875 -2.515625 C 3.984375 -2.679688 3.75 -2.800781 3.46875 -2.875 C 3.1875 -2.957031 2.878906 -3.050781 2.546875 -3.15625 C 2.222656 -3.269531 1.921875 -3.390625 1.640625 -3.515625 C 1.367188 -3.640625 1.140625 -3.835938 0.953125 -4.109375 C 0.765625 -4.378906 0.671875 -4.707031 0.671875 -5.09375 C 0.671875 -5.6875 0.898438 -6.160156 1.359375 -6.515625 C 1.828125 -6.867188 2.445312 -7.046875 3.21875 -7.046875 Z M 3.21875 -7.046875 "/></g></g></g><g fill="#022179" fill-opacity="1"><g transform="translate(196.824738, 255.338815)"><g><path d="M 4.015625 -7.03125 C 4.515625 -7.03125 5 -6.929688 5.46875 -6.734375 C 5.9375 -6.546875 6.34375 -6.285156 6.6875 -5.953125 L 5.984375 -5.09375 C 5.734375 -5.363281 5.429688 -5.578125 5.078125 -5.734375 C 4.734375 -5.898438 4.390625 -5.984375 4.046875 -5.984375 C 3.335938 -5.984375 2.742188 -5.742188 2.265625 -5.265625 C 1.785156 -4.785156 1.546875 -4.203125 1.546875 -3.515625 C 1.546875 -2.828125 1.785156 -2.242188 2.265625 -1.765625 C 2.742188 -1.285156 3.335938 -1.046875 4.046875 -1.046875 C 4.765625 -1.046875 5.410156 -1.320312 5.984375 -1.875 L 6.6875 -1.09375 C 6.332031 -0.738281 5.910156 -0.457031 5.421875 -0.25 C 4.941406 -0.0507812 4.460938 0.046875 3.984375 0.046875 C 2.953125 0.046875 2.085938 -0.289062 1.390625 -0.96875 C 0.691406 -1.65625 0.34375 -2.503906 0.34375 -3.515625 C 0.34375 -4.503906 0.695312 -5.335938 1.40625 -6.015625 C 2.113281 -6.691406 2.984375 -7.03125 4.015625 -7.03125 Z M 4.015625 -7.03125 "/></g></g></g><g fill="#022179" fill-opacity="1"><g transform="translate(204.301992, 255.338815)"><g><path d="M 5.921875 -5.9375 L 2.09375 -5.9375 L 2.09375 -4.046875 L 5.515625 -4.046875 L 5.515625 -2.984375 L 2.09375 -2.984375 L 2.09375 -1.0625 L 6.046875 -1.0625 L 6.046875 0 L 0.921875 0 L 0.921875 -7 L 5.921875 -7 Z M 5.921875 -5.9375 "/></g></g></g></svg>